REM MD5 f837f6110cbfd7bb9f7de4e13630d055
FILE "Virtual Kasparov (USA) (En,Fr,Es).bin" BINARY
  TRACK 01 MODE2/2352
    INDEX 01 00:00:00
  TRACK 02 AUDIO
    INDEX 00 47:23:46
    INDEX 01 47:25:46
  TRACK 03 AUDIO
    INDEX 00 51:32:34
    INDEX 01 51:34:34
  TRACK 04 AUDIO
    INDEX 00 53:43:30
    INDEX 01 53:45:30
  TRACK 05 AUDIO
    INDEX 00 56:52:41
    INDEX 01 56:54:41
REM LEADOUT 60:05:54
